%TF.GenerationSoftware,KiCad,Pcbnew,10.0.0*%
%TF.CreationDate,2026-03-25T16:29:51+03:00*%
%TF.ProjectId,OQCard,4f514361-7264-42e6-9b69-6361645f7063,rev?*%
%TF.SameCoordinates,Original*%
%TF.FileFunction,Copper,L1,Top*%
%TF.FilePolarity,Positive*%
%FSLAX46Y46*%
G04 Gerber Fmt 4.6, Leading zero omitted, Abs format (unit mm)*
G04 Created by KiCad (PCBNEW 10.0.0) date 2026-03-25 16:29:51*
%MOMM*%
%LPD*%
G01*
G04 APERTURE LIST*
%TA.AperFunction,Conductor*%
%ADD10C,0.200000*%
%TD*%
%ADD11C,-0.000001*%
G04 APERTURE END LIST*
%TO.N,*%
D10*
X224000000Y-100000000D02*
X224000000Y-150000000D01*
X223000000Y-100000000D02*
X223000000Y-150000000D01*
X222000000Y-100000000D02*
X222000000Y-150000000D01*
X221000000Y-100000000D02*
X221000000Y-150000000D01*
X220000000Y-100000000D02*
X220000000Y-150000000D01*
X219000000Y-100000000D02*
X219000000Y-150000000D01*
X218000000Y-100000000D02*
X218000000Y-150000000D01*
X217000000Y-100000000D02*
X217000000Y-150000000D01*
X216000000Y-100000000D02*
X216000000Y-150000000D01*
X215000000Y-100000000D02*
X215000000Y-150000000D01*
X214000000Y-100000000D02*
X214000000Y-150000000D01*
X213000000Y-100000000D02*
X213000000Y-150000000D01*
X212000000Y-100000000D02*
X212000000Y-150000000D01*
X211000000Y-100000000D02*
X211000000Y-150000000D01*
X210000000Y-100000000D02*
X210000000Y-150000000D01*
X209000000Y-100000000D02*
X209000000Y-150000000D01*
X208000000Y-100000000D02*
X208000000Y-150000000D01*
X207000000Y-100000000D02*
X207000000Y-150000000D01*
X206000000Y-100000000D02*
X206000000Y-150000000D01*
X205000000Y-100000000D02*
X205000000Y-150000000D01*
X204000000Y-100000000D02*
X204000000Y-150000000D01*
X203000000Y-100000000D02*
X203000000Y-150000000D01*
X202000000Y-100000000D02*
X202000000Y-150000000D01*
X201000000Y-100000000D02*
X201000000Y-150000000D01*
X200000000Y-100000000D02*
X200000000Y-150000000D01*
X199000000Y-100000000D02*
X199000000Y-150000000D01*
X198000000Y-100000000D02*
X198000000Y-150000000D01*
X197000000Y-100000000D02*
X197000000Y-150000000D01*
X196000000Y-100000000D02*
X196000000Y-150000000D01*
X195000000Y-100000000D02*
X195000000Y-150000000D01*
X194000000Y-100000000D02*
X194000000Y-150000000D01*
X193000000Y-100000000D02*
X193000000Y-150000000D01*
X192000000Y-100000000D02*
X192000000Y-150000000D01*
X191000000Y-100000000D02*
X191000000Y-150000000D01*
X190000000Y-100000000D02*
X190000000Y-150000000D01*
X189000000Y-100000000D02*
X189000000Y-150000000D01*
X188000000Y-100000000D02*
X188000000Y-150000000D01*
X187000000Y-100000000D02*
X187000000Y-150000000D01*
X186000000Y-100000000D02*
X186000000Y-150000000D01*
X185000000Y-100000000D02*
X185000000Y-150000000D01*
X184000000Y-100000000D02*
X184000000Y-150000000D01*
X183000000Y-100000000D02*
X183000000Y-150000000D01*
X182000000Y-100000000D02*
X182000000Y-150000000D01*
X181000000Y-100000000D02*
X181000000Y-150000000D01*
X180000000Y-100000000D02*
X180000000Y-150000000D01*
X179000000Y-100000000D02*
X179000000Y-150000000D01*
X178000000Y-100000000D02*
X178000000Y-150000000D01*
X177000000Y-100000000D02*
X177000000Y-150000000D01*
X176000000Y-100000000D02*
X176000000Y-150000000D01*
X175000000Y-100000000D02*
X175000000Y-150000000D01*
X174000000Y-100000000D02*
X174000000Y-150000000D01*
X173000000Y-100000000D02*
X173000000Y-150000000D01*
X172000000Y-100000000D02*
X172000000Y-150000000D01*
X171000000Y-100000000D02*
X171000000Y-150000000D01*
X170000000Y-100000000D02*
X170000000Y-150000000D01*
X169000000Y-100000000D02*
X169000000Y-150000000D01*
X168000000Y-100000000D02*
X168000000Y-150000000D01*
X167000000Y-100000000D02*
X167000000Y-150000000D01*
X166000000Y-100000000D02*
X166000000Y-150000000D01*
X165000000Y-100000000D02*
X165000000Y-150000000D01*
X164000000Y-100000000D02*
X164000000Y-150000000D01*
X163000000Y-100000000D02*
X163000000Y-150000000D01*
X162000000Y-100000000D02*
X162000000Y-150000000D01*
X161000000Y-100000000D02*
X161000000Y-150000000D01*
X160000000Y-100000000D02*
X160000000Y-150000000D01*
X159000000Y-100000000D02*
X159000000Y-150000000D01*
X158000000Y-100000000D02*
X158000000Y-150000000D01*
X157000000Y-100000000D02*
X157000000Y-150000000D01*
X156000000Y-100000000D02*
X156000000Y-150000000D01*
X155000000Y-100000000D02*
X155000000Y-150000000D01*
X154000000Y-100000000D02*
X154000000Y-150000000D01*
X153000000Y-100000000D02*
X153000000Y-150000000D01*
X152000000Y-100000000D02*
X152000000Y-150000000D01*
X151000000Y-100000000D02*
X151000000Y-150000000D01*
X150000000Y-100000000D02*
X150000000Y-150000000D01*
X149000000Y-100000000D02*
X149000000Y-150000000D01*
X148000000Y-100000000D02*
X148000000Y-150000000D01*
X147000000Y-100000000D02*
X147000000Y-150000000D01*
X146000000Y-100000000D02*
X146000000Y-150000000D01*
X145000000Y-100000000D02*
X145000000Y-150000000D01*
X144000000Y-100000000D02*
X144000000Y-150000000D01*
X143000000Y-100000000D02*
X143000000Y-150000000D01*
X142000000Y-100000000D02*
X142000000Y-150000000D01*
X141000000Y-100000000D02*
X141000000Y-150000000D01*
X140000000Y-100000000D02*
X140000000Y-150000000D01*
X139000000Y-100000000D02*
X139000000Y-150000000D01*
X138000000Y-100000000D02*
X138000000Y-150000000D01*
X137000000Y-100000000D02*
X137000000Y-150000000D01*
X136000000Y-100000000D02*
X136000000Y-150000000D01*
X135000000Y-100000000D02*
X135000000Y-150000000D01*
X134000000Y-100000000D02*
X134000000Y-150000000D01*
X133000000Y-100000000D02*
X133000000Y-150000000D01*
X132000000Y-100000000D02*
X132000000Y-150000000D01*
X131000000Y-100000000D02*
X131000000Y-150000000D01*
X130000000Y-100000000D02*
X130000000Y-150000000D01*
X129000000Y-100000000D02*
X129000000Y-150000000D01*
X128000000Y-100000000D02*
X128000000Y-150000000D01*
X127000000Y-100000000D02*
X127000000Y-150000000D01*
X126000000Y-100000000D02*
X126000000Y-150000000D01*
X125000000Y-100000000D02*
X125000000Y-150000000D01*
X124000000Y-100000000D02*
X124000000Y-150000000D01*
X123000000Y-100000000D02*
X123000000Y-150000000D01*
X122000000Y-100000000D02*
X122000000Y-150000000D01*
X121000000Y-100000000D02*
X121000000Y-150000000D01*
X120000000Y-100000000D02*
X120000000Y-150000000D01*
X119000000Y-100000000D02*
X119000000Y-150000000D01*
X118000000Y-100000000D02*
X118000000Y-150000000D01*
X117000000Y-100000000D02*
X117000000Y-150000000D01*
X116000000Y-100000000D02*
X116000000Y-150000000D01*
X115000000Y-100000000D02*
X115000000Y-150000000D01*
X114000000Y-100000000D02*
X114000000Y-150000000D01*
X113000000Y-100000000D02*
X113000000Y-150000000D01*
X112000000Y-100000000D02*
X112000000Y-150000000D01*
X111000000Y-100000000D02*
X111000000Y-150000000D01*
X110000000Y-100000000D02*
X110000000Y-150000000D01*
X109000000Y-100000000D02*
X109000000Y-150000000D01*
X108000000Y-100000000D02*
X108000000Y-150000000D01*
X107000000Y-100000000D02*
X107000000Y-150000000D01*
X106000000Y-100000000D02*
X106000000Y-150000000D01*
X105000000Y-100000000D02*
X105000000Y-150000000D01*
X104000000Y-100000000D02*
X104000000Y-150000000D01*
X103000000Y-100000000D02*
X103000000Y-150000000D01*
X102000000Y-100000000D02*
X102000000Y-150000000D01*
X101000000Y-100000000D02*
X101000000Y-150000000D01*
X100000000Y-100000000D02*
X100000000Y-150000000D01*
%TD*%
%TA.AperFunction,NonConductor*%
G36*
X299943039Y-50019685D02*
G01*
X299988794Y-50072489D01*
X300000000Y-50124000D01*
X300000000Y-249101049D01*
X299980315Y-249168088D01*
X299927511Y-249213843D01*
X299858353Y-249223787D01*
X299798538Y-249197877D01*
X176826373Y-150820145D01*
X176786321Y-150762894D01*
X176783578Y-150693079D01*
X176819017Y-150632863D01*
X176881384Y-150601366D01*
X176912816Y-150600563D01*
X176912816Y-150600500D01*
X176915291Y-150600500D01*
X176920029Y-150600379D01*
X176920938Y-150600498D01*
X176920943Y-150600500D01*
X176920948Y-150600500D01*
X177079055Y-150600500D01*
X177079057Y-150600500D01*
X177231784Y-150559577D01*
X177368716Y-150480520D01*
X177412319Y-150436917D01*
X177473642Y-150403432D01*
X177543334Y-150408416D01*
X177587681Y-150436917D01*
X177631284Y-150480520D01*
X177631286Y-150480521D01*
X177631290Y-150480524D01*
X177768209Y-150559573D01*
X177768216Y-150559577D01*
X177920943Y-150600500D01*
X177920945Y-150600500D01*
X178079055Y-150600500D01*
X178079057Y-150600500D01*
X178231784Y-150559577D01*
X178368716Y-150480520D01*
X178412319Y-150436917D01*
X178473642Y-150403432D01*
X178543334Y-150408416D01*
X178587681Y-150436917D01*
X178631284Y-150480520D01*
X178631286Y-150480521D01*
X178631290Y-150480524D01*
X178768209Y-150559573D01*
X178768216Y-150559577D01*
X178920943Y-150600500D01*
X178920945Y-150600500D01*
X179079055Y-150600500D01*
X179079057Y-150600500D01*
X179231784Y-150559577D01*
X179368716Y-150480520D01*
X179412319Y-150436917D01*
X179473642Y-150403432D01*
X179543334Y-150408416D01*
X179587681Y-150436917D01*
X179631284Y-150480520D01*
X179631286Y-150480521D01*
X179631290Y-150480524D01*
X179768209Y-150559573D01*
X179768216Y-150559577D01*
X179920943Y-150600500D01*
X179920945Y-150600500D01*
X180079055Y-150600500D01*
X180079057Y-150600500D01*
X180231784Y-150559577D01*
X180368716Y-150480520D01*
X180412319Y-150436917D01*
X180473642Y-150403432D01*
X180543334Y-150408416D01*
X180587681Y-150436917D01*
X180631284Y-150480520D01*
X180631286Y-150480521D01*
X180631290Y-150480524D01*
X180768209Y-150559573D01*
X180768216Y-150559577D01*
X180920943Y-150600500D01*
X180920945Y-150600500D01*
X181079055Y-150600500D01*
X181079057Y-150600500D01*
X181231784Y-150559577D01*
X181368716Y-150480520D01*
X181412319Y-150436917D01*
X181473642Y-150403432D01*
X181543334Y-150408416D01*
X181587681Y-150436917D01*
X181631284Y-150480520D01*
X181631286Y-150480521D01*
X181631290Y-150480524D01*
X181768209Y-150559573D01*
X181768216Y-150559577D01*
X181920943Y-150600500D01*
X181920945Y-150600500D01*
X182079055Y-150600500D01*
X182079057Y-150600500D01*
X182231784Y-150559577D01*
X182368716Y-150480520D01*
X182412319Y-150436917D01*
X182473642Y-150403432D01*
X182543334Y-150408416D01*
X182587681Y-150436917D01*
X182631284Y-150480520D01*
X182631286Y-150480521D01*
X182631290Y-150480524D01*
X182768209Y-150559573D01*
X182768216Y-150559577D01*
X182920943Y-150600500D01*
X182920945Y-150600500D01*
X183079055Y-150600500D01*
X183079057Y-150600500D01*
X183231784Y-150559577D01*
X183368716Y-150480520D01*
X183412319Y-150436917D01*
X183473642Y-150403432D01*
X183543334Y-150408416D01*
X183587681Y-150436917D01*
X183631284Y-150480520D01*
X183631286Y-150480521D01*
X183631290Y-150480524D01*
X183768209Y-150559573D01*
X183768216Y-150559577D01*
X183920943Y-150600500D01*
X183920945Y-150600500D01*
X184079055Y-150600500D01*
X184079057Y-150600500D01*
X184231784Y-150559577D01*
X184368716Y-150480520D01*
X184412319Y-150436917D01*
X184473642Y-150403432D01*
X184543334Y-150408416D01*
X184587681Y-150436917D01*
X184631284Y-150480520D01*
X184631286Y-150480521D01*
X184631290Y-150480524D01*
X184768209Y-150559573D01*
X184768216Y-150559577D01*
X184920943Y-150600500D01*
X184920945Y-150600500D01*
X185079055Y-150600500D01*
X185079057Y-150600500D01*
X185231784Y-150559577D01*
X185368716Y-150480520D01*
X185412319Y-150436917D01*
X185473642Y-150403432D01*
X185543334Y-150408416D01*
X185587681Y-150436917D01*
X185631284Y-150480520D01*
X185631286Y-150480521D01*
X185631290Y-150480524D01*
X185768209Y-150559573D01*
X185768216Y-150559577D01*
X185920943Y-150600500D01*
X185920945Y-150600500D01*
X186079055Y-150600500D01*
X186079057Y-150600500D01*
X186231784Y-150559577D01*
X186368716Y-150480520D01*
X186412319Y-150436917D01*
X186473642Y-150403432D01*
X186543334Y-150408416D01*
X186587681Y-150436917D01*
X186631284Y-150480520D01*
X186631286Y-150480521D01*
X186631290Y-150480524D01*
X186768209Y-150559573D01*
X186768216Y-150559577D01*
X186920943Y-150600500D01*
X186920945Y-150600500D01*
X187079055Y-150600500D01*
X187079057Y-150600500D01*
X187231784Y-150559577D01*
X187368716Y-150480520D01*
X187412319Y-150436917D01*
X187473642Y-150403432D01*
X187543334Y-150408416D01*
X187587681Y-150436917D01*
X187631284Y-150480520D01*
X187631286Y-150480521D01*
X187631290Y-150480524D01*
X187768209Y-150559573D01*
X187768216Y-150559577D01*
X187920943Y-150600500D01*
X187920945Y-150600500D01*
X188079055Y-150600500D01*
X188079057Y-150600500D01*
X188231784Y-150559577D01*
X188368716Y-150480520D01*
X188412319Y-150436917D01*
X188473642Y-150403432D01*
X188543334Y-150408416D01*
X188587681Y-150436917D01*
X188631284Y-150480520D01*
X188631286Y-150480521D01*
X188631290Y-150480524D01*
X188768209Y-150559573D01*
X188768216Y-150559577D01*
X188920943Y-150600500D01*
X188920945Y-150600500D01*
X189079055Y-150600500D01*
X189079057Y-150600500D01*
X189231784Y-150559577D01*
X189368716Y-150480520D01*
X189412319Y-150436917D01*
X189473642Y-150403432D01*
X189543334Y-150408416D01*
X189587681Y-150436917D01*
X189631284Y-150480520D01*
X189631286Y-150480521D01*
X189631290Y-150480524D01*
X189768209Y-150559573D01*
X189768216Y-150559577D01*
X189920943Y-150600500D01*
X189920945Y-150600500D01*
X190079055Y-150600500D01*
X190079057Y-150600500D01*
X190231784Y-150559577D01*
X190368716Y-150480520D01*
X190412319Y-150436917D01*
X190473642Y-150403432D01*
X190543334Y-150408416D01*
X190587681Y-150436917D01*
X190631284Y-150480520D01*
X190631286Y-150480521D01*
X190631290Y-150480524D01*
X190768209Y-150559573D01*
X190768216Y-150559577D01*
X190920943Y-150600500D01*
X190920945Y-150600500D01*
X191079055Y-150600500D01*
X191079057Y-150600500D01*
X191231784Y-150559577D01*
X191368716Y-150480520D01*
X191412319Y-150436917D01*
X191473642Y-150403432D01*
X191543334Y-150408416D01*
X191587681Y-150436917D01*
X191631284Y-150480520D01*
X191631286Y-150480521D01*
X191631290Y-150480524D01*
X191768209Y-150559573D01*
X191768216Y-150559577D01*
X191920943Y-150600500D01*
X191920945Y-150600500D01*
X192079055Y-150600500D01*
X192079057Y-150600500D01*
X192231784Y-150559577D01*
X192368716Y-150480520D01*
X192412319Y-150436917D01*
X192473642Y-150403432D01*
X192543334Y-150408416D01*
X192587681Y-150436917D01*
X192631284Y-150480520D01*
X192631286Y-150480521D01*
X192631290Y-150480524D01*
X192768209Y-150559573D01*
X192768216Y-150559577D01*
X192920943Y-150600500D01*
X192920945Y-150600500D01*
X193079055Y-150600500D01*
X193079057Y-150600500D01*
X193231784Y-150559577D01*
X193368716Y-150480520D01*
X193412319Y-150436917D01*
X193473642Y-150403432D01*
X193543334Y-150408416D01*
X193587681Y-150436917D01*
X193631284Y-150480520D01*
X193631286Y-150480521D01*
X193631290Y-150480524D01*
X193768209Y-150559573D01*
X193768216Y-150559577D01*
X193920943Y-150600500D01*
X193920945Y-150600500D01*
X194079055Y-150600500D01*
X194079057Y-150600500D01*
X194231784Y-150559577D01*
X194368716Y-150480520D01*
X194412319Y-150436917D01*
X194473642Y-150403432D01*
X194543334Y-150408416D01*
X194587681Y-150436917D01*
X194631284Y-150480520D01*
X194631286Y-150480521D01*
X194631290Y-150480524D01*
X194768209Y-150559573D01*
X194768216Y-150559577D01*
X194920943Y-150600500D01*
X194920945Y-150600500D01*
X195079055Y-150600500D01*
X195079057Y-150600500D01*
X195231784Y-150559577D01*
X195368716Y-150480520D01*
X195412319Y-150436917D01*
X195473642Y-150403432D01*
X195543334Y-150408416D01*
X195587681Y-150436917D01*
X195631284Y-150480520D01*
X195631286Y-150480521D01*
X195631290Y-150480524D01*
X195768209Y-150559573D01*
X195768216Y-150559577D01*
X195920943Y-150600500D01*
X195920945Y-150600500D01*
X196079055Y-150600500D01*
X196079057Y-150600500D01*
X196231784Y-150559577D01*
X196368716Y-150480520D01*
X196412319Y-150436917D01*
X196473642Y-150403432D01*
X196543334Y-150408416D01*
X196587681Y-150436917D01*
X196631284Y-150480520D01*
X196631286Y-150480521D01*
X196631290Y-150480524D01*
X196768209Y-150559573D01*
X196768216Y-150559577D01*
X196920943Y-150600500D01*
X196920945Y-150600500D01*
X197079055Y-150600500D01*
X197079057Y-150600500D01*
X197231784Y-150559577D01*
X197368716Y-150480520D01*
X197412319Y-150436917D01*
X197473642Y-150403432D01*
X197543334Y-150408416D01*
X197587681Y-150436917D01*
X197631284Y-150480520D01*
X197631286Y-150480521D01*
X197631290Y-150480524D01*
X197768209Y-150559573D01*
X197768216Y-150559577D01*
X197920943Y-150600500D01*
X197920945Y-150600500D01*
X198079055Y-150600500D01*
X198079057Y-150600500D01*
X198231784Y-150559577D01*
X198368716Y-150480520D01*
X198412319Y-150436917D01*
X198473642Y-150403432D01*
X198543334Y-150408416D01*
X198587681Y-150436917D01*
X198631284Y-150480520D01*
X198631286Y-150480521D01*
X198631290Y-150480524D01*
X198768209Y-150559573D01*
X198768216Y-150559577D01*
X198920943Y-150600500D01*
X198920945Y-150600500D01*
X199079055Y-150600500D01*
X199079057Y-150600500D01*
X199231784Y-150559577D01*
X199368716Y-150480520D01*
X199412319Y-150436917D01*
X199473642Y-150403432D01*
X199543334Y-150408416D01*
X199587681Y-150436917D01*
X199631284Y-150480520D01*
X199631286Y-150480521D01*
X199631290Y-150480524D01*
X199768209Y-150559573D01*
X199768216Y-150559577D01*
X199920943Y-150600500D01*
X199920945Y-150600500D01*
X200079055Y-150600500D01*
X200079057Y-150600500D01*
X200231784Y-150559577D01*
X200368716Y-150480520D01*
X200412319Y-150436917D01*
X200473642Y-150403432D01*
X200543334Y-150408416D01*
X200587681Y-150436917D01*
X200631284Y-150480520D01*
X200631286Y-150480521D01*
X200631290Y-150480524D01*
X200768209Y-150559573D01*
X200768216Y-150559577D01*
X200920943Y-150600500D01*
X200920945Y-150600500D01*
X201079055Y-150600500D01*
X201079057Y-150600500D01*
X201231784Y-150559577D01*
X201368716Y-150480520D01*
X201412319Y-150436917D01*
X201473642Y-150403432D01*
X201543334Y-150408416D01*
X201587681Y-150436917D01*
X201631284Y-150480520D01*
X201631286Y-150480521D01*
X201631290Y-150480524D01*
X201768209Y-150559573D01*
X201768216Y-150559577D01*
X201920943Y-150600500D01*
X201920945Y-150600500D01*
X202079055Y-150600500D01*
X202079057Y-150600500D01*
X202231784Y-150559577D01*
X202368716Y-150480520D01*
X202412319Y-150436917D01*
X202473642Y-150403432D01*
X202543334Y-150408416D01*
X202587681Y-150436917D01*
X202631284Y-150480520D01*
X202631286Y-150480521D01*
X202631290Y-150480524D01*
X202768209Y-150559573D01*
X202768216Y-150559577D01*
X202920943Y-150600500D01*
X202920945Y-150600500D01*
X203079055Y-150600500D01*
X203079057Y-150600500D01*
X203231784Y-150559577D01*
X203368716Y-150480520D01*
X203412319Y-150436917D01*
X203473642Y-150403432D01*
X203543334Y-150408416D01*
X203587681Y-150436917D01*
X203631284Y-150480520D01*
X203631286Y-150480521D01*
X203631290Y-150480524D01*
X203768209Y-150559573D01*
X203768216Y-150559577D01*
X203920943Y-150600500D01*
X203920945Y-150600500D01*
X204079055Y-150600500D01*
X204079057Y-150600500D01*
X204231784Y-150559577D01*
X204368716Y-150480520D01*
X204412319Y-150436917D01*
X204473642Y-150403432D01*
X204543334Y-150408416D01*
X204587681Y-150436917D01*
X204631284Y-150480520D01*
X204631286Y-150480521D01*
X204631290Y-150480524D01*
X204768209Y-150559573D01*
X204768216Y-150559577D01*
X204920943Y-150600500D01*
X204920945Y-150600500D01*
X205079055Y-150600500D01*
X205079057Y-150600500D01*
X205231784Y-150559577D01*
X205368716Y-150480520D01*
X205412319Y-150436917D01*
X205473642Y-150403432D01*
X205543334Y-150408416D01*
X205587681Y-150436917D01*
X205631284Y-150480520D01*
X205631286Y-150480521D01*
X205631290Y-150480524D01*
X205768209Y-150559573D01*
X205768216Y-150559577D01*
X205920943Y-150600500D01*
X205920945Y-150600500D01*
X206079055Y-150600500D01*
X206079057Y-150600500D01*
X206231784Y-150559577D01*
X206368716Y-150480520D01*
X206412319Y-150436917D01*
X206473642Y-150403432D01*
X206543334Y-150408416D01*
X206587681Y-150436917D01*
X206631284Y-150480520D01*
X206631286Y-150480521D01*
X206631290Y-150480524D01*
X206768209Y-150559573D01*
X206768216Y-150559577D01*
X206920943Y-150600500D01*
X206920945Y-150600500D01*
X207079055Y-150600500D01*
X207079057Y-150600500D01*
X207231784Y-150559577D01*
X207368716Y-150480520D01*
X207412319Y-150436917D01*
X207473642Y-150403432D01*
X207543334Y-150408416D01*
X207587681Y-150436917D01*
X207631284Y-150480520D01*
X207631286Y-150480521D01*
X207631290Y-150480524D01*
X207768209Y-150559573D01*
X207768216Y-150559577D01*
X207920943Y-150600500D01*
X207920945Y-150600500D01*
X208079055Y-150600500D01*
X208079057Y-150600500D01*
X208231784Y-150559577D01*
X208368716Y-150480520D01*
X208412319Y-150436917D01*
X208473642Y-150403432D01*
X208543334Y-150408416D01*
X208587681Y-150436917D01*
X208631284Y-150480520D01*
X208631286Y-150480521D01*
X208631290Y-150480524D01*
X208768209Y-150559573D01*
X208768216Y-150559577D01*
X208920943Y-150600500D01*
X208920945Y-150600500D01*
X209079055Y-150600500D01*
X209079057Y-150600500D01*
X209231784Y-150559577D01*
X209368716Y-150480520D01*
X209412319Y-150436917D01*
X209473642Y-150403432D01*
X209543334Y-150408416D01*
X209587681Y-150436917D01*
X209631284Y-150480520D01*
X209631286Y-150480521D01*
X209631290Y-150480524D01*
X209768209Y-150559573D01*
X209768216Y-150559577D01*
X209920943Y-150600500D01*
X209920945Y-150600500D01*
X210079055Y-150600500D01*
X210079057Y-150600500D01*
X210231784Y-150559577D01*
X210368716Y-150480520D01*
X210412319Y-150436917D01*
X210473642Y-150403432D01*
X210543334Y-150408416D01*
X210587681Y-150436917D01*
X210631284Y-150480520D01*
X210631286Y-150480521D01*
X210631290Y-150480524D01*
X210768209Y-150559573D01*
X210768216Y-150559577D01*
X210920943Y-150600500D01*
X210920945Y-150600500D01*
X211079055Y-150600500D01*
X211079057Y-150600500D01*
X211231784Y-150559577D01*
X211368716Y-150480520D01*
X211412319Y-150436917D01*
X211473642Y-150403432D01*
X211543334Y-150408416D01*
X211587681Y-150436917D01*
X211631284Y-150480520D01*
X211631286Y-150480521D01*
X211631290Y-150480524D01*
X211768209Y-150559573D01*
X211768216Y-150559577D01*
X211920943Y-150600500D01*
X211920945Y-150600500D01*
X212079055Y-150600500D01*
X212079057Y-150600500D01*
X212231784Y-150559577D01*
X212368716Y-150480520D01*
X212412319Y-150436917D01*
X212473642Y-150403432D01*
X212543334Y-150408416D01*
X212587681Y-150436917D01*
X212631284Y-150480520D01*
X212631286Y-150480521D01*
X212631290Y-150480524D01*
X212768209Y-150559573D01*
X212768216Y-150559577D01*
X212920943Y-150600500D01*
X212920945Y-150600500D01*
X213079055Y-150600500D01*
X213079057Y-150600500D01*
X213231784Y-150559577D01*
X213368716Y-150480520D01*
X213412319Y-150436917D01*
X213473642Y-150403432D01*
X213543334Y-150408416D01*
X213587681Y-150436917D01*
X213631284Y-150480520D01*
X213631286Y-150480521D01*
X213631290Y-150480524D01*
X213768209Y-150559573D01*
X213768216Y-150559577D01*
X213920943Y-150600500D01*
X213920945Y-150600500D01*
X214079055Y-150600500D01*
X214079057Y-150600500D01*
X214231784Y-150559577D01*
X214368716Y-150480520D01*
X214412319Y-150436917D01*
X214473642Y-150403432D01*
X214543334Y-150408416D01*
X214587681Y-150436917D01*
X214631284Y-150480520D01*
X214631286Y-150480521D01*
X214631290Y-150480524D01*
X214768209Y-150559573D01*
X214768216Y-150559577D01*
X214920943Y-150600500D01*
X214920945Y-150600500D01*
X215079055Y-150600500D01*
X215079057Y-150600500D01*
X215231784Y-150559577D01*
X215368716Y-150480520D01*
X215412319Y-150436917D01*
X215473642Y-150403432D01*
X215543334Y-150408416D01*
X215587681Y-150436917D01*
X215631284Y-150480520D01*
X215631286Y-150480521D01*
X215631290Y-150480524D01*
X215768209Y-150559573D01*
X215768216Y-150559577D01*
X215920943Y-150600500D01*
X215920945Y-150600500D01*
X216079055Y-150600500D01*
X216079057Y-150600500D01*
X216231784Y-150559577D01*
X216368716Y-150480520D01*
X216412319Y-150436917D01*
X216473642Y-150403432D01*
X216543334Y-150408416D01*
X216587681Y-150436917D01*
X216631284Y-150480520D01*
X216631286Y-150480521D01*
X216631290Y-150480524D01*
X216768209Y-150559573D01*
X216768216Y-150559577D01*
X216920943Y-150600500D01*
X216920945Y-150600500D01*
X217079055Y-150600500D01*
X217079057Y-150600500D01*
X217231784Y-150559577D01*
X217368716Y-150480520D01*
X217412319Y-150436917D01*
X217473642Y-150403432D01*
X217543334Y-150408416D01*
X217587681Y-150436917D01*
X217631284Y-150480520D01*
X217631286Y-150480521D01*
X217631290Y-150480524D01*
X217768209Y-150559573D01*
X217768216Y-150559577D01*
X217920943Y-150600500D01*
X217920945Y-150600500D01*
X218079055Y-150600500D01*
X218079057Y-150600500D01*
X218231784Y-150559577D01*
X218368716Y-150480520D01*
X218412319Y-150436917D01*
X218473642Y-150403432D01*
X218543334Y-150408416D01*
X218587681Y-150436917D01*
X218631284Y-150480520D01*
X218631286Y-150480521D01*
X218631290Y-150480524D01*
X218768209Y-150559573D01*
X218768216Y-150559577D01*
X218920943Y-150600500D01*
X218920945Y-150600500D01*
X219079055Y-150600500D01*
X219079057Y-150600500D01*
X219231784Y-150559577D01*
X219368716Y-150480520D01*
X219412319Y-150436917D01*
X219473642Y-150403432D01*
X219543334Y-150408416D01*
X219587681Y-150436917D01*
X219631284Y-150480520D01*
X219631286Y-150480521D01*
X219631290Y-150480524D01*
X219768209Y-150559573D01*
X219768216Y-150559577D01*
X219920943Y-150600500D01*
X219920945Y-150600500D01*
X220079055Y-150600500D01*
X220079057Y-150600500D01*
X220231784Y-150559577D01*
X220368716Y-150480520D01*
X220412319Y-150436917D01*
X220473642Y-150403432D01*
X220543334Y-150408416D01*
X220587681Y-150436917D01*
X220631284Y-150480520D01*
X220631286Y-150480521D01*
X220631290Y-150480524D01*
X220768209Y-150559573D01*
X220768216Y-150559577D01*
X220920943Y-150600500D01*
X220920945Y-150600500D01*
X221079055Y-150600500D01*
X221079057Y-150600500D01*
X221231784Y-150559577D01*
X221368716Y-150480520D01*
X221412319Y-150436917D01*
X221473642Y-150403432D01*
X221543334Y-150408416D01*
X221587681Y-150436917D01*
X221631284Y-150480520D01*
X221631286Y-150480521D01*
X221631290Y-150480524D01*
X221768209Y-150559573D01*
X221768216Y-150559577D01*
X221920943Y-150600500D01*
X221920945Y-150600500D01*
X222079055Y-150600500D01*
X222079057Y-150600500D01*
X222231784Y-150559577D01*
X222368716Y-150480520D01*
X222412319Y-150436917D01*
X222473642Y-150403432D01*
X222543334Y-150408416D01*
X222587681Y-150436917D01*
X222631284Y-150480520D01*
X222631286Y-150480521D01*
X222631290Y-150480524D01*
X222768209Y-150559573D01*
X222768216Y-150559577D01*
X222920943Y-150600500D01*
X222920945Y-150600500D01*
X223079055Y-150600500D01*
X223079057Y-150600500D01*
X223231784Y-150559577D01*
X223368716Y-150480520D01*
X223412319Y-150436917D01*
X223473642Y-150403432D01*
X223543334Y-150408416D01*
X223587681Y-150436917D01*
X223631284Y-150480520D01*
X223631286Y-150480521D01*
X223631290Y-150480524D01*
X223768209Y-150559573D01*
X223768216Y-150559577D01*
X223920943Y-150600500D01*
X223920945Y-150600500D01*
X224079055Y-150600500D01*
X224079057Y-150600500D01*
X224231784Y-150559577D01*
X224368716Y-150480520D01*
X224480520Y-150368716D01*
X224559577Y-150231784D01*
X224600500Y-150079057D01*
X224600500Y-99920943D01*
X224559577Y-99768216D01*
X224500000Y-99665024D01*
X224480524Y-99631290D01*
X224480518Y-99631282D01*
X224368717Y-99519481D01*
X224368709Y-99519475D01*
X224231790Y-99440426D01*
X224231786Y-99440424D01*
X224231784Y-99440423D01*
X224079057Y-99399500D01*
X223920943Y-99399500D01*
X223768216Y-99440423D01*
X223768209Y-99440426D01*
X223631290Y-99519475D01*
X223631282Y-99519481D01*
X223587681Y-99563083D01*
X223526358Y-99596568D01*
X223456666Y-99591584D01*
X223412319Y-99563083D01*
X223368717Y-99519481D01*
X223368709Y-99519475D01*
X223231790Y-99440426D01*
X223231786Y-99440424D01*
X223231784Y-99440423D01*
X223079057Y-99399500D01*
X222920943Y-99399500D01*
X222768216Y-99440423D01*
X222768209Y-99440426D01*
X222631290Y-99519475D01*
X222631282Y-99519481D01*
X222587681Y-99563083D01*
X222526358Y-99596568D01*
X222456666Y-99591584D01*
X222412319Y-99563083D01*
X222368717Y-99519481D01*
X222368709Y-99519475D01*
X222231790Y-99440426D01*
X222231786Y-99440424D01*
X222231784Y-99440423D01*
X222079057Y-99399500D01*
X221920943Y-99399500D01*
X221768216Y-99440423D01*
X221768209Y-99440426D01*
X221631290Y-99519475D01*
X221631282Y-99519481D01*
X221587681Y-99563083D01*
X221526358Y-99596568D01*
X221456666Y-99591584D01*
X221412319Y-99563083D01*
X221368717Y-99519481D01*
X221368709Y-99519475D01*
X221231790Y-99440426D01*
X221231786Y-99440424D01*
X221231784Y-99440423D01*
X221079057Y-99399500D01*
X220920943Y-99399500D01*
X220768216Y-99440423D01*
X220768209Y-99440426D01*
X220631290Y-99519475D01*
X220631282Y-99519481D01*
X220587681Y-99563083D01*
X220526358Y-99596568D01*
X220456666Y-99591584D01*
X220412319Y-99563083D01*
X220368717Y-99519481D01*
X220368709Y-99519475D01*
X220231790Y-99440426D01*
X220231786Y-99440424D01*
X220231784Y-99440423D01*
X220079057Y-99399500D01*
X219920943Y-99399500D01*
X219768216Y-99440423D01*
X219768209Y-99440426D01*
X219631290Y-99519475D01*
X219631282Y-99519481D01*
X219587681Y-99563083D01*
X219526358Y-99596568D01*
X219456666Y-99591584D01*
X219412319Y-99563083D01*
X219368717Y-99519481D01*
X219368709Y-99519475D01*
X219231790Y-99440426D01*
X219231786Y-99440424D01*
X219231784Y-99440423D01*
X219079057Y-99399500D01*
X218920943Y-99399500D01*
X218768216Y-99440423D01*
X218768209Y-99440426D01*
X218631290Y-99519475D01*
X218631282Y-99519481D01*
X218587681Y-99563083D01*
X218526358Y-99596568D01*
X218456666Y-99591584D01*
X218412319Y-99563083D01*
X218368717Y-99519481D01*
X218368709Y-99519475D01*
X218231790Y-99440426D01*
X218231786Y-99440424D01*
X218231784Y-99440423D01*
X218079057Y-99399500D01*
X217920943Y-99399500D01*
X217768216Y-99440423D01*
X217768209Y-99440426D01*
X217631290Y-99519475D01*
X217631282Y-99519481D01*
X217587681Y-99563083D01*
X217526358Y-99596568D01*
X217456666Y-99591584D01*
X217412319Y-99563083D01*
X217368717Y-99519481D01*
X217368709Y-99519475D01*
X217231790Y-99440426D01*
X217231786Y-99440424D01*
X217231784Y-99440423D01*
X217079057Y-99399500D01*
X216920943Y-99399500D01*
X216768216Y-99440423D01*
X216768209Y-99440426D01*
X216631290Y-99519475D01*
X216631282Y-99519481D01*
X216587681Y-99563083D01*
X216526358Y-99596568D01*
X216456666Y-99591584D01*
X216412319Y-99563083D01*
X216368717Y-99519481D01*
X216368709Y-99519475D01*
X216231790Y-99440426D01*
X216231786Y-99440424D01*
X216231784Y-99440423D01*
X216079057Y-99399500D01*
X215920943Y-99399500D01*
X215768216Y-99440423D01*
X215768209Y-99440426D01*
X215631290Y-99519475D01*
X215631282Y-99519481D01*
X215587681Y-99563083D01*
X215526358Y-99596568D01*
X215456666Y-99591584D01*
X215412319Y-99563083D01*
X215368717Y-99519481D01*
X215368709Y-99519475D01*
X215231790Y-99440426D01*
X215231786Y-99440424D01*
X215231784Y-99440423D01*
X215079057Y-99399500D01*
X214920943Y-99399500D01*
X214768216Y-99440423D01*
X214768209Y-99440426D01*
X214631290Y-99519475D01*
X214631282Y-99519481D01*
X214587681Y-99563083D01*
X214526358Y-99596568D01*
X214456666Y-99591584D01*
X214412319Y-99563083D01*
X214368717Y-99519481D01*
X214368709Y-99519475D01*
X214231790Y-99440426D01*
X214231786Y-99440424D01*
X214231784Y-99440423D01*
X214079057Y-99399500D01*
X213920943Y-99399500D01*
X213768216Y-99440423D01*
X213768209Y-99440426D01*
X213631290Y-99519475D01*
X213631282Y-99519481D01*
X213587681Y-99563083D01*
X213526358Y-99596568D01*
X213456666Y-99591584D01*
X213412319Y-99563083D01*
X213368717Y-99519481D01*
X213368709Y-99519475D01*
X213231790Y-99440426D01*
X213231786Y-99440424D01*
X213231784Y-99440423D01*
X213079057Y-99399500D01*
X212920943Y-99399500D01*
X212768216Y-99440423D01*
X212768209Y-99440426D01*
X212631290Y-99519475D01*
X212631282Y-99519481D01*
X212587681Y-99563083D01*
X212526358Y-99596568D01*
X212456666Y-99591584D01*
X212412319Y-99563083D01*
X212368717Y-99519481D01*
X212368709Y-99519475D01*
X212231790Y-99440426D01*
X212231786Y-99440424D01*
X212231784Y-99440423D01*
X212079057Y-99399500D01*
X211920943Y-99399500D01*
X211768216Y-99440423D01*
X211768209Y-99440426D01*
X211631290Y-99519475D01*
X211631282Y-99519481D01*
X211587681Y-99563083D01*
X211526358Y-99596568D01*
X211456666Y-99591584D01*
X211412319Y-99563083D01*
X211368717Y-99519481D01*
X211368709Y-99519475D01*
X211231790Y-99440426D01*
X211231786Y-99440424D01*
X211231784Y-99440423D01*
X211079057Y-99399500D01*
X210920943Y-99399500D01*
X210768216Y-99440423D01*
X210768209Y-99440426D01*
X210631290Y-99519475D01*
X210631282Y-99519481D01*
X210587681Y-99563083D01*
X210526358Y-99596568D01*
X210456666Y-99591584D01*
X210412319Y-99563083D01*
X210368717Y-99519481D01*
X210368709Y-99519475D01*
X210231790Y-99440426D01*
X210231786Y-99440424D01*
X210231784Y-99440423D01*
X210079057Y-99399500D01*
X209920943Y-99399500D01*
X209768216Y-99440423D01*
X209768209Y-99440426D01*
X209631290Y-99519475D01*
X209631282Y-99519481D01*
X209587681Y-99563083D01*
X209526358Y-99596568D01*
X209456666Y-99591584D01*
X209412319Y-99563083D01*
X209368717Y-99519481D01*
X209368709Y-99519475D01*
X209231790Y-99440426D01*
X209231786Y-99440424D01*
X209231784Y-99440423D01*
X209079057Y-99399500D01*
X208920943Y-99399500D01*
X208768216Y-99440423D01*
X208768209Y-99440426D01*
X208631290Y-99519475D01*
X208631282Y-99519481D01*
X208587681Y-99563083D01*
X208526358Y-99596568D01*
X208456666Y-99591584D01*
X208412319Y-99563083D01*
X208368717Y-99519481D01*
X208368709Y-99519475D01*
X208231790Y-99440426D01*
X208231786Y-99440424D01*
X208231784Y-99440423D01*
X208079057Y-99399500D01*
X207920943Y-99399500D01*
X207768216Y-99440423D01*
X207768209Y-99440426D01*
X207631290Y-99519475D01*
X207631282Y-99519481D01*
X207587681Y-99563083D01*
X207526358Y-99596568D01*
X207456666Y-99591584D01*
X207412319Y-99563083D01*
X207368717Y-99519481D01*
X207368709Y-99519475D01*
X207231790Y-99440426D01*
X207231786Y-99440424D01*
X207231784Y-99440423D01*
X207079057Y-99399500D01*
X206920943Y-99399500D01*
X206768216Y-99440423D01*
X206768209Y-99440426D01*
X206631290Y-99519475D01*
X206631282Y-99519481D01*
X206587681Y-99563083D01*
X206526358Y-99596568D01*
X206456666Y-99591584D01*
X206412319Y-99563083D01*
X206368717Y-99519481D01*
X206368709Y-99519475D01*
X206231790Y-99440426D01*
X206231786Y-99440424D01*
X206231784Y-99440423D01*
X206079057Y-99399500D01*
X205920943Y-99399500D01*
X205768216Y-99440423D01*
X205768209Y-99440426D01*
X205631290Y-99519475D01*
X205631282Y-99519481D01*
X205587681Y-99563083D01*
X205526358Y-99596568D01*
X205456666Y-99591584D01*
X205412319Y-99563083D01*
X205368717Y-99519481D01*
X205368709Y-99519475D01*
X205231790Y-99440426D01*
X205231786Y-99440424D01*
X205231784Y-99440423D01*
X205079057Y-99399500D01*
X204920943Y-99399500D01*
X204768216Y-99440423D01*
X204768209Y-99440426D01*
X204631290Y-99519475D01*
X204631282Y-99519481D01*
X204587681Y-99563083D01*
X204526358Y-99596568D01*
X204456666Y-99591584D01*
X204412319Y-99563083D01*
X204368717Y-99519481D01*
X204368709Y-99519475D01*
X204231790Y-99440426D01*
X204231786Y-99440424D01*
X204231784Y-99440423D01*
X204079057Y-99399500D01*
X203920943Y-99399500D01*
X203768216Y-99440423D01*
X203768209Y-99440426D01*
X203631290Y-99519475D01*
X203631282Y-99519481D01*
X203587681Y-99563083D01*
X203526358Y-99596568D01*
X203456666Y-99591584D01*
X203412319Y-99563083D01*
X203368717Y-99519481D01*
X203368709Y-99519475D01*
X203231790Y-99440426D01*
X203231786Y-99440424D01*
X203231784Y-99440423D01*
X203079057Y-99399500D01*
X202920943Y-99399500D01*
X202768216Y-99440423D01*
X202768209Y-99440426D01*
X202631290Y-99519475D01*
X202631282Y-99519481D01*
X202587681Y-99563083D01*
X202526358Y-99596568D01*
X202456666Y-99591584D01*
X202412319Y-99563083D01*
X202368717Y-99519481D01*
X202368709Y-99519475D01*
X202231790Y-99440426D01*
X202231786Y-99440424D01*
X202231784Y-99440423D01*
X202079057Y-99399500D01*
X201920943Y-99399500D01*
X201768216Y-99440423D01*
X201768209Y-99440426D01*
X201631290Y-99519475D01*
X201631282Y-99519481D01*
X201587681Y-99563083D01*
X201526358Y-99596568D01*
X201456666Y-99591584D01*
X201412319Y-99563083D01*
X201368717Y-99519481D01*
X201368709Y-99519475D01*
X201231790Y-99440426D01*
X201231786Y-99440424D01*
X201231784Y-99440423D01*
X201079057Y-99399500D01*
X200920943Y-99399500D01*
X200768216Y-99440423D01*
X200768209Y-99440426D01*
X200631290Y-99519475D01*
X200631282Y-99519481D01*
X200587681Y-99563083D01*
X200526358Y-99596568D01*
X200456666Y-99591584D01*
X200412319Y-99563083D01*
X200368717Y-99519481D01*
X200368709Y-99519475D01*
X200231790Y-99440426D01*
X200231786Y-99440424D01*
X200231784Y-99440423D01*
X200079057Y-99399500D01*
X199920943Y-99399500D01*
X199768216Y-99440423D01*
X199768209Y-99440426D01*
X199631290Y-99519475D01*
X199631282Y-99519481D01*
X199587681Y-99563083D01*
X199526358Y-99596568D01*
X199456666Y-99591584D01*
X199412319Y-99563083D01*
X199368717Y-99519481D01*
X199368709Y-99519475D01*
X199231790Y-99440426D01*
X199231786Y-99440424D01*
X199231784Y-99440423D01*
X199079057Y-99399500D01*
X198920943Y-99399500D01*
X198768216Y-99440423D01*
X198768209Y-99440426D01*
X198631290Y-99519475D01*
X198631282Y-99519481D01*
X198587681Y-99563083D01*
X198526358Y-99596568D01*
X198456666Y-99591584D01*
X198412319Y-99563083D01*
X198368717Y-99519481D01*
X198368709Y-99519475D01*
X198231790Y-99440426D01*
X198231786Y-99440424D01*
X198231784Y-99440423D01*
X198079057Y-99399500D01*
X197920943Y-99399500D01*
X197768216Y-99440423D01*
X197768209Y-99440426D01*
X197631290Y-99519475D01*
X197631282Y-99519481D01*
X197587681Y-99563083D01*
X197526358Y-99596568D01*
X197456666Y-99591584D01*
X197412319Y-99563083D01*
X197368717Y-99519481D01*
X197368709Y-99519475D01*
X197231790Y-99440426D01*
X197231786Y-99440424D01*
X197231784Y-99440423D01*
X197079057Y-99399500D01*
X196920943Y-99399500D01*
X196768216Y-99440423D01*
X196768209Y-99440426D01*
X196631290Y-99519475D01*
X196631282Y-99519481D01*
X196587681Y-99563083D01*
X196526358Y-99596568D01*
X196456666Y-99591584D01*
X196412319Y-99563083D01*
X196368717Y-99519481D01*
X196368709Y-99519475D01*
X196231790Y-99440426D01*
X196231786Y-99440424D01*
X196231784Y-99440423D01*
X196079057Y-99399500D01*
X195920943Y-99399500D01*
X195768216Y-99440423D01*
X195768209Y-99440426D01*
X195631290Y-99519475D01*
X195631282Y-99519481D01*
X195587681Y-99563083D01*
X195526358Y-99596568D01*
X195456666Y-99591584D01*
X195412319Y-99563083D01*
X195368717Y-99519481D01*
X195368709Y-99519475D01*
X195231790Y-99440426D01*
X195231786Y-99440424D01*
X195231784Y-99440423D01*
X195079057Y-99399500D01*
X194920943Y-99399500D01*
X194768216Y-99440423D01*
X194768209Y-99440426D01*
X194631290Y-99519475D01*
X194631282Y-99519481D01*
X194587681Y-99563083D01*
X194526358Y-99596568D01*
X194456666Y-99591584D01*
X194412319Y-99563083D01*
X194368717Y-99519481D01*
X194368709Y-99519475D01*
X194231790Y-99440426D01*
X194231786Y-99440424D01*
X194231784Y-99440423D01*
X194079057Y-99399500D01*
X193920943Y-99399500D01*
X193768216Y-99440423D01*
X193768209Y-99440426D01*
X193631290Y-99519475D01*
X193631282Y-99519481D01*
X193587681Y-99563083D01*
X193526358Y-99596568D01*
X193456666Y-99591584D01*
X193412319Y-99563083D01*
X193368717Y-99519481D01*
X193368709Y-99519475D01*
X193231790Y-99440426D01*
X193231786Y-99440424D01*
X193231784Y-99440423D01*
X193079057Y-99399500D01*
X192920943Y-99399500D01*
X192768216Y-99440423D01*
X192768209Y-99440426D01*
X192631290Y-99519475D01*
X192631282Y-99519481D01*
X192587681Y-99563083D01*
X192526358Y-99596568D01*
X192456666Y-99591584D01*
X192412319Y-99563083D01*
X192368717Y-99519481D01*
X192368709Y-99519475D01*
X192231790Y-99440426D01*
X192231786Y-99440424D01*
X192231784Y-99440423D01*
X192079057Y-99399500D01*
X191920943Y-99399500D01*
X191768216Y-99440423D01*
X191768209Y-99440426D01*
X191631290Y-99519475D01*
X191631282Y-99519481D01*
X191587681Y-99563083D01*
X191526358Y-99596568D01*
X191456666Y-99591584D01*
X191412319Y-99563083D01*
X191368717Y-99519481D01*
X191368709Y-99519475D01*
X191231790Y-99440426D01*
X191231786Y-99440424D01*
X191231784Y-99440423D01*
X191079057Y-99399500D01*
X190920943Y-99399500D01*
X190768216Y-99440423D01*
X190768209Y-99440426D01*
X190631290Y-99519475D01*
X190631282Y-99519481D01*
X190587681Y-99563083D01*
X190526358Y-99596568D01*
X190456666Y-99591584D01*
X190412319Y-99563083D01*
X190368717Y-99519481D01*
X190368709Y-99519475D01*
X190231790Y-99440426D01*
X190231786Y-99440424D01*
X190231784Y-99440423D01*
X190079057Y-99399500D01*
X189920943Y-99399500D01*
X189768216Y-99440423D01*
X189768209Y-99440426D01*
X189631290Y-99519475D01*
X189631282Y-99519481D01*
X189587681Y-99563083D01*
X189526358Y-99596568D01*
X189456666Y-99591584D01*
X189412319Y-99563083D01*
X189368717Y-99519481D01*
X189368709Y-99519475D01*
X189231790Y-99440426D01*
X189231786Y-99440424D01*
X189231784Y-99440423D01*
X189079057Y-99399500D01*
X188920943Y-99399500D01*
X188768216Y-99440423D01*
X188768209Y-99440426D01*
X188631290Y-99519475D01*
X188631282Y-99519481D01*
X188587681Y-99563083D01*
X188526358Y-99596568D01*
X188456666Y-99591584D01*
X188412319Y-99563083D01*
X188368717Y-99519481D01*
X188368709Y-99519475D01*
X188231790Y-99440426D01*
X188231786Y-99440424D01*
X188231784Y-99440423D01*
X188079057Y-99399500D01*
X187920943Y-99399500D01*
X187768216Y-99440423D01*
X187768209Y-99440426D01*
X187631290Y-99519475D01*
X187631282Y-99519481D01*
X187587681Y-99563083D01*
X187526358Y-99596568D01*
X187456666Y-99591584D01*
X187412319Y-99563083D01*
X187368717Y-99519481D01*
X187368709Y-99519475D01*
X187231790Y-99440426D01*
X187231786Y-99440424D01*
X187231784Y-99440423D01*
X187079057Y-99399500D01*
X186920943Y-99399500D01*
X186768216Y-99440423D01*
X186768209Y-99440426D01*
X186631290Y-99519475D01*
X186631282Y-99519481D01*
X186587681Y-99563083D01*
X186526358Y-99596568D01*
X186456666Y-99591584D01*
X186412319Y-99563083D01*
X186368717Y-99519481D01*
X186368709Y-99519475D01*
X186231790Y-99440426D01*
X186231786Y-99440424D01*
X186231784Y-99440423D01*
X186079057Y-99399500D01*
X185920943Y-99399500D01*
X185768216Y-99440423D01*
X185768209Y-99440426D01*
X185631290Y-99519475D01*
X185631282Y-99519481D01*
X185587681Y-99563083D01*
X185526358Y-99596568D01*
X185456666Y-99591584D01*
X185412319Y-99563083D01*
X185368717Y-99519481D01*
X185368709Y-99519475D01*
X185231790Y-99440426D01*
X185231786Y-99440424D01*
X185231784Y-99440423D01*
X185079057Y-99399500D01*
X184920943Y-99399500D01*
X184768216Y-99440423D01*
X184768209Y-99440426D01*
X184631290Y-99519475D01*
X184631282Y-99519481D01*
X184587681Y-99563083D01*
X184526358Y-99596568D01*
X184456666Y-99591584D01*
X184412319Y-99563083D01*
X184368717Y-99519481D01*
X184368709Y-99519475D01*
X184231790Y-99440426D01*
X184231786Y-99440424D01*
X184231784Y-99440423D01*
X184079057Y-99399500D01*
X183920943Y-99399500D01*
X183768216Y-99440423D01*
X183768209Y-99440426D01*
X183631290Y-99519475D01*
X183631282Y-99519481D01*
X183587681Y-99563083D01*
X183526358Y-99596568D01*
X183456666Y-99591584D01*
X183412319Y-99563083D01*
X183368717Y-99519481D01*
X183368709Y-99519475D01*
X183231790Y-99440426D01*
X183231786Y-99440424D01*
X183231784Y-99440423D01*
X183079057Y-99399500D01*
X182920943Y-99399500D01*
X182768216Y-99440423D01*
X182768209Y-99440426D01*
X182631290Y-99519475D01*
X182631282Y-99519481D01*
X182587681Y-99563083D01*
X182526358Y-99596568D01*
X182456666Y-99591584D01*
X182412319Y-99563083D01*
X182368717Y-99519481D01*
X182368709Y-99519475D01*
X182231790Y-99440426D01*
X182231786Y-99440424D01*
X182231784Y-99440423D01*
X182079057Y-99399500D01*
X181920943Y-99399500D01*
X181768216Y-99440423D01*
X181768209Y-99440426D01*
X181631290Y-99519475D01*
X181631282Y-99519481D01*
X181587681Y-99563083D01*
X181526358Y-99596568D01*
X181456666Y-99591584D01*
X181412319Y-99563083D01*
X181368717Y-99519481D01*
X181368709Y-99519475D01*
X181231790Y-99440426D01*
X181231786Y-99440424D01*
X181231784Y-99440423D01*
X181079057Y-99399500D01*
X180920943Y-99399500D01*
X180768216Y-99440423D01*
X180768209Y-99440426D01*
X180631290Y-99519475D01*
X180631282Y-99519481D01*
X180587681Y-99563083D01*
X180526358Y-99596568D01*
X180456666Y-99591584D01*
X180412319Y-99563083D01*
X180368717Y-99519481D01*
X180368709Y-99519475D01*
X180231790Y-99440426D01*
X180231786Y-99440424D01*
X180231784Y-99440423D01*
X180079057Y-99399500D01*
X179920943Y-99399500D01*
X179768216Y-99440423D01*
X179768209Y-99440426D01*
X179631290Y-99519475D01*
X179631282Y-99519481D01*
X179587681Y-99563083D01*
X179526358Y-99596568D01*
X179456666Y-99591584D01*
X179412319Y-99563083D01*
X179368717Y-99519481D01*
X179368709Y-99519475D01*
X179231790Y-99440426D01*
X179231786Y-99440424D01*
X179231784Y-99440423D01*
X179079057Y-99399500D01*
X178920943Y-99399500D01*
X178768216Y-99440423D01*
X178768209Y-99440426D01*
X178631290Y-99519475D01*
X178631282Y-99519481D01*
X178587681Y-99563083D01*
X178526358Y-99596568D01*
X178456666Y-99591584D01*
X178412319Y-99563083D01*
X178368717Y-99519481D01*
X178368709Y-99519475D01*
X178231790Y-99440426D01*
X178231786Y-99440424D01*
X178231784Y-99440423D01*
X178079057Y-99399500D01*
X177920943Y-99399500D01*
X177768216Y-99440423D01*
X177768209Y-99440426D01*
X177631290Y-99519475D01*
X177631282Y-99519481D01*
X177587681Y-99563083D01*
X177526358Y-99596568D01*
X177456666Y-99591584D01*
X177412319Y-99563083D01*
X177368717Y-99519481D01*
X177368709Y-99519475D01*
X177231790Y-99440426D01*
X177231786Y-99440424D01*
X177231784Y-99440423D01*
X177079057Y-99399500D01*
X176920943Y-99399500D01*
X176768216Y-99440423D01*
X176768209Y-99440426D01*
X176631290Y-99519475D01*
X176631282Y-99519481D01*
X176587681Y-99563083D01*
X176526358Y-99596568D01*
X176456666Y-99591584D01*
X176412319Y-99563083D01*
X176368717Y-99519481D01*
X176368709Y-99519475D01*
X176231790Y-99440426D01*
X176231786Y-99440424D01*
X176231784Y-99440423D01*
X176079057Y-99399500D01*
X175920943Y-99399500D01*
X175768216Y-99440423D01*
X175768209Y-99440426D01*
X175631290Y-99519475D01*
X175631282Y-99519481D01*
X175587681Y-99563083D01*
X175526358Y-99596568D01*
X175456666Y-99591584D01*
X175412319Y-99563083D01*
X175368717Y-99519481D01*
X175368709Y-99519475D01*
X175231790Y-99440426D01*
X175231786Y-99440424D01*
X175231784Y-99440423D01*
X175079057Y-99399500D01*
X174920943Y-99399500D01*
X174768216Y-99440423D01*
X174768209Y-99440426D01*
X174631290Y-99519475D01*
X174631282Y-99519481D01*
X174587681Y-99563083D01*
X174526358Y-99596568D01*
X174456666Y-99591584D01*
X174412319Y-99563083D01*
X174368717Y-99519481D01*
X174368709Y-99519475D01*
X174231790Y-99440426D01*
X174231786Y-99440424D01*
X174231784Y-99440423D01*
X174079057Y-99399500D01*
X173920943Y-99399500D01*
X173768216Y-99440423D01*
X173768209Y-99440426D01*
X173631290Y-99519475D01*
X173631282Y-99519481D01*
X173587681Y-99563083D01*
X173526358Y-99596568D01*
X173456666Y-99591584D01*
X173412319Y-99563083D01*
X173368717Y-99519481D01*
X173368709Y-99519475D01*
X173231790Y-99440426D01*
X173231786Y-99440424D01*
X173231784Y-99440423D01*
X173079057Y-99399500D01*
X172920943Y-99399500D01*
X172768216Y-99440423D01*
X172768209Y-99440426D01*
X172631290Y-99519475D01*
X172631282Y-99519481D01*
X172587681Y-99563083D01*
X172526358Y-99596568D01*
X172456666Y-99591584D01*
X172412319Y-99563083D01*
X172368717Y-99519481D01*
X172368709Y-99519475D01*
X172231790Y-99440426D01*
X172231786Y-99440424D01*
X172231784Y-99440423D01*
X172079057Y-99399500D01*
X171920943Y-99399500D01*
X171768216Y-99440423D01*
X171768209Y-99440426D01*
X171631290Y-99519475D01*
X171631282Y-99519481D01*
X171587681Y-99563083D01*
X171526358Y-99596568D01*
X171456666Y-99591584D01*
X171412319Y-99563083D01*
X171368717Y-99519481D01*
X171368709Y-99519475D01*
X171231790Y-99440426D01*
X171231786Y-99440424D01*
X171231784Y-99440423D01*
X171079057Y-99399500D01*
X170920943Y-99399500D01*
X170768216Y-99440423D01*
X170768209Y-99440426D01*
X170631290Y-99519475D01*
X170631282Y-99519481D01*
X170587681Y-99563083D01*
X170526358Y-99596568D01*
X170456666Y-99591584D01*
X170412319Y-99563083D01*
X170368717Y-99519481D01*
X170368709Y-99519475D01*
X170231790Y-99440426D01*
X170231786Y-99440424D01*
X170231784Y-99440423D01*
X170079057Y-99399500D01*
X169920943Y-99399500D01*
X169768216Y-99440423D01*
X169768209Y-99440426D01*
X169631290Y-99519475D01*
X169631282Y-99519481D01*
X169587681Y-99563083D01*
X169526358Y-99596568D01*
X169456666Y-99591584D01*
X169412319Y-99563083D01*
X169368717Y-99519481D01*
X169368709Y-99519475D01*
X169231790Y-99440426D01*
X169231786Y-99440424D01*
X169231784Y-99440423D01*
X169079057Y-99399500D01*
X168920943Y-99399500D01*
X168768216Y-99440423D01*
X168768209Y-99440426D01*
X168631290Y-99519475D01*
X168631282Y-99519481D01*
X168587681Y-99563083D01*
X168526358Y-99596568D01*
X168456666Y-99591584D01*
X168412319Y-99563083D01*
X168368717Y-99519481D01*
X168368709Y-99519475D01*
X168231790Y-99440426D01*
X168231786Y-99440424D01*
X168231784Y-99440423D01*
X168079057Y-99399500D01*
X167920943Y-99399500D01*
X167768216Y-99440423D01*
X167768209Y-99440426D01*
X167631290Y-99519475D01*
X167631282Y-99519481D01*
X167587681Y-99563083D01*
X167526358Y-99596568D01*
X167456666Y-99591584D01*
X167412319Y-99563083D01*
X167368717Y-99519481D01*
X167368709Y-99519475D01*
X167231790Y-99440426D01*
X167231786Y-99440424D01*
X167231784Y-99440423D01*
X167079057Y-99399500D01*
X166920943Y-99399500D01*
X166768216Y-99440423D01*
X166768209Y-99440426D01*
X166631290Y-99519475D01*
X166631282Y-99519481D01*
X166587681Y-99563083D01*
X166526358Y-99596568D01*
X166456666Y-99591584D01*
X166412319Y-99563083D01*
X166368717Y-99519481D01*
X166368709Y-99519475D01*
X166231790Y-99440426D01*
X166231786Y-99440424D01*
X166231784Y-99440423D01*
X166079057Y-99399500D01*
X165920943Y-99399500D01*
X165768216Y-99440423D01*
X165768209Y-99440426D01*
X165631290Y-99519475D01*
X165631282Y-99519481D01*
X165587681Y-99563083D01*
X165526358Y-99596568D01*
X165456666Y-99591584D01*
X165412319Y-99563083D01*
X165368717Y-99519481D01*
X165368709Y-99519475D01*
X165231790Y-99440426D01*
X165231786Y-99440424D01*
X165231784Y-99440423D01*
X165079057Y-99399500D01*
X164920943Y-99399500D01*
X164768216Y-99440423D01*
X164768209Y-99440426D01*
X164631290Y-99519475D01*
X164631282Y-99519481D01*
X164587681Y-99563083D01*
X164526358Y-99596568D01*
X164456666Y-99591584D01*
X164412319Y-99563083D01*
X164368717Y-99519481D01*
X164368709Y-99519475D01*
X164231790Y-99440426D01*
X164231786Y-99440424D01*
X164231784Y-99440423D01*
X164079057Y-99399500D01*
X163920943Y-99399500D01*
X163768216Y-99440423D01*
X163768209Y-99440426D01*
X163631290Y-99519475D01*
X163631282Y-99519481D01*
X163587681Y-99563083D01*
X163526358Y-99596568D01*
X163456666Y-99591584D01*
X163412319Y-99563083D01*
X163368717Y-99519481D01*
X163368709Y-99519475D01*
X163231790Y-99440426D01*
X163231786Y-99440424D01*
X163231784Y-99440423D01*
X163079057Y-99399500D01*
X162920943Y-99399500D01*
X162768216Y-99440423D01*
X162768209Y-99440426D01*
X162631290Y-99519475D01*
X162631282Y-99519481D01*
X162587681Y-99563083D01*
X162526358Y-99596568D01*
X162456666Y-99591584D01*
X162412319Y-99563083D01*
X162368717Y-99519481D01*
X162368709Y-99519475D01*
X162231790Y-99440426D01*
X162231786Y-99440424D01*
X162231784Y-99440423D01*
X162079057Y-99399500D01*
X161920943Y-99399500D01*
X161768216Y-99440423D01*
X161768209Y-99440426D01*
X161631290Y-99519475D01*
X161631282Y-99519481D01*
X161587681Y-99563083D01*
X161526358Y-99596568D01*
X161456666Y-99591584D01*
X161412319Y-99563083D01*
X161368717Y-99519481D01*
X161368709Y-99519475D01*
X161231790Y-99440426D01*
X161231786Y-99440424D01*
X161231784Y-99440423D01*
X161079057Y-99399500D01*
X160920943Y-99399500D01*
X160768216Y-99440423D01*
X160768209Y-99440426D01*
X160631290Y-99519475D01*
X160631282Y-99519481D01*
X160587681Y-99563083D01*
X160526358Y-99596568D01*
X160456666Y-99591584D01*
X160412319Y-99563083D01*
X160368717Y-99519481D01*
X160368709Y-99519475D01*
X160231790Y-99440426D01*
X160231786Y-99440424D01*
X160231784Y-99440423D01*
X160079057Y-99399500D01*
X159920943Y-99399500D01*
X159768216Y-99440423D01*
X159768209Y-99440426D01*
X159631290Y-99519475D01*
X159631282Y-99519481D01*
X159587681Y-99563083D01*
X159526358Y-99596568D01*
X159456666Y-99591584D01*
X159412319Y-99563083D01*
X159368717Y-99519481D01*
X159368709Y-99519475D01*
X159231790Y-99440426D01*
X159231786Y-99440424D01*
X159231784Y-99440423D01*
X159079057Y-99399500D01*
X158920943Y-99399500D01*
X158768216Y-99440423D01*
X158768209Y-99440426D01*
X158631290Y-99519475D01*
X158631282Y-99519481D01*
X158587681Y-99563083D01*
X158526358Y-99596568D01*
X158456666Y-99591584D01*
X158412319Y-99563083D01*
X158368717Y-99519481D01*
X158368709Y-99519475D01*
X158231790Y-99440426D01*
X158231786Y-99440424D01*
X158231784Y-99440423D01*
X158079057Y-99399500D01*
X157920943Y-99399500D01*
X157768216Y-99440423D01*
X157768209Y-99440426D01*
X157631290Y-99519475D01*
X157631282Y-99519481D01*
X157587681Y-99563083D01*
X157526358Y-99596568D01*
X157456666Y-99591584D01*
X157412319Y-99563083D01*
X157368717Y-99519481D01*
X157368709Y-99519475D01*
X157231790Y-99440426D01*
X157231786Y-99440424D01*
X157231784Y-99440423D01*
X157079057Y-99399500D01*
X156920943Y-99399500D01*
X156768216Y-99440423D01*
X156768209Y-99440426D01*
X156631290Y-99519475D01*
X156631282Y-99519481D01*
X156587681Y-99563083D01*
X156526358Y-99596568D01*
X156456666Y-99591584D01*
X156412319Y-99563083D01*
X156368717Y-99519481D01*
X156368709Y-99519475D01*
X156231790Y-99440426D01*
X156231786Y-99440424D01*
X156231784Y-99440423D01*
X156079057Y-99399500D01*
X155920943Y-99399500D01*
X155768216Y-99440423D01*
X155768209Y-99440426D01*
X155631290Y-99519475D01*
X155631282Y-99519481D01*
X155587681Y-99563083D01*
X155526358Y-99596568D01*
X155456666Y-99591584D01*
X155412319Y-99563083D01*
X155368717Y-99519481D01*
X155368709Y-99519475D01*
X155231790Y-99440426D01*
X155231786Y-99440424D01*
X155231784Y-99440423D01*
X155079057Y-99399500D01*
X154920943Y-99399500D01*
X154768216Y-99440423D01*
X154768209Y-99440426D01*
X154631290Y-99519475D01*
X154631282Y-99519481D01*
X154587681Y-99563083D01*
X154526358Y-99596568D01*
X154456666Y-99591584D01*
X154412319Y-99563083D01*
X154368717Y-99519481D01*
X154368709Y-99519475D01*
X154231790Y-99440426D01*
X154231786Y-99440424D01*
X154231784Y-99440423D01*
X154079057Y-99399500D01*
X153920943Y-99399500D01*
X153768216Y-99440423D01*
X153768209Y-99440426D01*
X153631290Y-99519475D01*
X153631282Y-99519481D01*
X153587681Y-99563083D01*
X153526358Y-99596568D01*
X153456666Y-99591584D01*
X153412319Y-99563083D01*
X153368717Y-99519481D01*
X153368709Y-99519475D01*
X153231790Y-99440426D01*
X153231786Y-99440424D01*
X153231784Y-99440423D01*
X153079057Y-99399500D01*
X152920943Y-99399500D01*
X152768216Y-99440423D01*
X152768209Y-99440426D01*
X152631290Y-99519475D01*
X152631282Y-99519481D01*
X152587681Y-99563083D01*
X152526358Y-99596568D01*
X152456666Y-99591584D01*
X152412319Y-99563083D01*
X152368717Y-99519481D01*
X152368709Y-99519475D01*
X152231790Y-99440426D01*
X152231786Y-99440424D01*
X152231784Y-99440423D01*
X152079057Y-99399500D01*
X151920943Y-99399500D01*
X151768216Y-99440423D01*
X151768209Y-99440426D01*
X151631290Y-99519475D01*
X151631282Y-99519481D01*
X151587681Y-99563083D01*
X151526358Y-99596568D01*
X151456666Y-99591584D01*
X151412319Y-99563083D01*
X151368717Y-99519481D01*
X151368709Y-99519475D01*
X151231790Y-99440426D01*
X151231786Y-99440424D01*
X151231784Y-99440423D01*
X151079057Y-99399500D01*
X150920943Y-99399500D01*
X150768216Y-99440423D01*
X150768209Y-99440426D01*
X150631290Y-99519475D01*
X150631282Y-99519481D01*
X150587681Y-99563083D01*
X150526358Y-99596568D01*
X150456666Y-99591584D01*
X150412319Y-99563083D01*
X150368717Y-99519481D01*
X150368709Y-99519475D01*
X150231790Y-99440426D01*
X150231786Y-99440424D01*
X150231784Y-99440423D01*
X150079057Y-99399500D01*
X149920943Y-99399500D01*
X149768216Y-99440423D01*
X149768209Y-99440426D01*
X149631290Y-99519475D01*
X149631282Y-99519481D01*
X149587681Y-99563083D01*
X149526358Y-99596568D01*
X149456666Y-99591584D01*
X149412319Y-99563083D01*
X149368717Y-99519481D01*
X149368709Y-99519475D01*
X149231790Y-99440426D01*
X149231786Y-99440424D01*
X149231784Y-99440423D01*
X149079057Y-99399500D01*
X148920943Y-99399500D01*
X148768216Y-99440423D01*
X148768209Y-99440426D01*
X148631290Y-99519475D01*
X148631282Y-99519481D01*
X148587681Y-99563083D01*
X148526358Y-99596568D01*
X148456666Y-99591584D01*
X148412319Y-99563083D01*
X148368717Y-99519481D01*
X148368709Y-99519475D01*
X148231790Y-99440426D01*
X148231786Y-99440424D01*
X148231784Y-99440423D01*
X148079057Y-99399500D01*
X147920943Y-99399500D01*
X147768216Y-99440423D01*
X147768209Y-99440426D01*
X147631290Y-99519475D01*
X147631282Y-99519481D01*
X147587681Y-99563083D01*
X147526358Y-99596568D01*
X147456666Y-99591584D01*
X147412319Y-99563083D01*
X147368717Y-99519481D01*
X147368709Y-99519475D01*
X147231790Y-99440426D01*
X147231786Y-99440424D01*
X147231784Y-99440423D01*
X147079057Y-99399500D01*
X146920943Y-99399500D01*
X146768216Y-99440423D01*
X146768209Y-99440426D01*
X146631290Y-99519475D01*
X146631282Y-99519481D01*
X146587681Y-99563083D01*
X146526358Y-99596568D01*
X146456666Y-99591584D01*
X146412319Y-99563083D01*
X146368717Y-99519481D01*
X146368709Y-99519475D01*
X146231790Y-99440426D01*
X146231786Y-99440424D01*
X146231784Y-99440423D01*
X146079057Y-99399500D01*
X145920943Y-99399500D01*
X145768216Y-99440423D01*
X145768209Y-99440426D01*
X145631290Y-99519475D01*
X145631282Y-99519481D01*
X145587681Y-99563083D01*
X145526358Y-99596568D01*
X145456666Y-99591584D01*
X145412319Y-99563083D01*
X145368717Y-99519481D01*
X145368709Y-99519475D01*
X145231790Y-99440426D01*
X145231786Y-99440424D01*
X145231784Y-99440423D01*
X145079057Y-99399500D01*
X144920943Y-99399500D01*
X144768216Y-99440423D01*
X144768209Y-99440426D01*
X144631290Y-99519475D01*
X144631282Y-99519481D01*
X144587681Y-99563083D01*
X144526358Y-99596568D01*
X144456666Y-99591584D01*
X144412319Y-99563083D01*
X144368717Y-99519481D01*
X144368709Y-99519475D01*
X144231790Y-99440426D01*
X144231786Y-99440424D01*
X144231784Y-99440423D01*
X144079057Y-99399500D01*
X143920943Y-99399500D01*
X143768216Y-99440423D01*
X143768209Y-99440426D01*
X143631290Y-99519475D01*
X143631282Y-99519481D01*
X143587681Y-99563083D01*
X143526358Y-99596568D01*
X143456666Y-99591584D01*
X143412319Y-99563083D01*
X143368717Y-99519481D01*
X143368709Y-99519475D01*
X143231790Y-99440426D01*
X143231786Y-99440424D01*
X143231784Y-99440423D01*
X143079057Y-99399500D01*
X142920943Y-99399500D01*
X142768216Y-99440423D01*
X142768209Y-99440426D01*
X142631290Y-99519475D01*
X142631282Y-99519481D01*
X142587681Y-99563083D01*
X142526358Y-99596568D01*
X142456666Y-99591584D01*
X142412319Y-99563083D01*
X142368717Y-99519481D01*
X142368709Y-99519475D01*
X142231790Y-99440426D01*
X142231786Y-99440424D01*
X142231784Y-99440423D01*
X142079057Y-99399500D01*
X141920943Y-99399500D01*
X141768216Y-99440423D01*
X141768209Y-99440426D01*
X141631290Y-99519475D01*
X141631282Y-99519481D01*
X141587681Y-99563083D01*
X141526358Y-99596568D01*
X141456666Y-99591584D01*
X141412319Y-99563083D01*
X141368717Y-99519481D01*
X141368709Y-99519475D01*
X141231790Y-99440426D01*
X141231786Y-99440424D01*
X141231784Y-99440423D01*
X141079057Y-99399500D01*
X140920943Y-99399500D01*
X140768216Y-99440423D01*
X140768209Y-99440426D01*
X140631290Y-99519475D01*
X140631282Y-99519481D01*
X140587681Y-99563083D01*
X140526358Y-99596568D01*
X140456666Y-99591584D01*
X140412319Y-99563083D01*
X140368717Y-99519481D01*
X140368709Y-99519475D01*
X140231790Y-99440426D01*
X140231786Y-99440424D01*
X140231784Y-99440423D01*
X140079057Y-99399500D01*
X139920943Y-99399500D01*
X139768216Y-99440423D01*
X139768209Y-99440426D01*
X139631290Y-99519475D01*
X139631282Y-99519481D01*
X139587681Y-99563083D01*
X139526358Y-99596568D01*
X139456666Y-99591584D01*
X139412319Y-99563083D01*
X139368717Y-99519481D01*
X139368709Y-99519475D01*
X139231790Y-99440426D01*
X139231786Y-99440424D01*
X139231784Y-99440423D01*
X139079057Y-99399500D01*
X138920943Y-99399500D01*
X138768216Y-99440423D01*
X138768209Y-99440426D01*
X138631290Y-99519475D01*
X138631282Y-99519481D01*
X138587681Y-99563083D01*
X138526358Y-99596568D01*
X138456666Y-99591584D01*
X138412319Y-99563083D01*
X138368717Y-99519481D01*
X138368709Y-99519475D01*
X138231790Y-99440426D01*
X138231786Y-99440424D01*
X138231784Y-99440423D01*
X138079057Y-99399500D01*
X137920943Y-99399500D01*
X137768216Y-99440423D01*
X137768209Y-99440426D01*
X137631290Y-99519475D01*
X137631282Y-99519481D01*
X137587681Y-99563083D01*
X137526358Y-99596568D01*
X137456666Y-99591584D01*
X137412319Y-99563083D01*
X137368717Y-99519481D01*
X137368709Y-99519475D01*
X137231790Y-99440426D01*
X137231786Y-99440424D01*
X137231784Y-99440423D01*
X137079057Y-99399500D01*
X136920943Y-99399500D01*
X136768216Y-99440423D01*
X136768209Y-99440426D01*
X136631290Y-99519475D01*
X136631282Y-99519481D01*
X136587681Y-99563083D01*
X136526358Y-99596568D01*
X136456666Y-99591584D01*
X136412319Y-99563083D01*
X136368717Y-99519481D01*
X136368709Y-99519475D01*
X136231790Y-99440426D01*
X136231786Y-99440424D01*
X136231784Y-99440423D01*
X136079057Y-99399500D01*
X135920943Y-99399500D01*
X135768216Y-99440423D01*
X135768209Y-99440426D01*
X135631290Y-99519475D01*
X135631282Y-99519481D01*
X135587681Y-99563083D01*
X135526358Y-99596568D01*
X135456666Y-99591584D01*
X135412319Y-99563083D01*
X135368717Y-99519481D01*
X135368709Y-99519475D01*
X135231790Y-99440426D01*
X135231786Y-99440424D01*
X135231784Y-99440423D01*
X135079057Y-99399500D01*
X134920943Y-99399500D01*
X134768216Y-99440423D01*
X134768209Y-99440426D01*
X134631290Y-99519475D01*
X134631282Y-99519481D01*
X134587681Y-99563083D01*
X134526358Y-99596568D01*
X134456666Y-99591584D01*
X134412319Y-99563083D01*
X134368717Y-99519481D01*
X134368709Y-99519475D01*
X134231790Y-99440426D01*
X134231786Y-99440424D01*
X134231784Y-99440423D01*
X134079057Y-99399500D01*
X133920943Y-99399500D01*
X133768216Y-99440423D01*
X133768209Y-99440426D01*
X133631290Y-99519475D01*
X133631282Y-99519481D01*
X133587681Y-99563083D01*
X133526358Y-99596568D01*
X133456666Y-99591584D01*
X133412319Y-99563083D01*
X133368717Y-99519481D01*
X133368709Y-99519475D01*
X133231790Y-99440426D01*
X133231786Y-99440424D01*
X133231784Y-99440423D01*
X133079057Y-99399500D01*
X132920943Y-99399500D01*
X132768216Y-99440423D01*
X132768209Y-99440426D01*
X132631290Y-99519475D01*
X132631282Y-99519481D01*
X132587681Y-99563083D01*
X132526358Y-99596568D01*
X132456666Y-99591584D01*
X132412319Y-99563083D01*
X132368717Y-99519481D01*
X132368709Y-99519475D01*
X132231790Y-99440426D01*
X132231786Y-99440424D01*
X132231784Y-99440423D01*
X132079057Y-99399500D01*
X131920943Y-99399500D01*
X131768216Y-99440423D01*
X131768209Y-99440426D01*
X131631290Y-99519475D01*
X131631282Y-99519481D01*
X131587681Y-99563083D01*
X131526358Y-99596568D01*
X131456666Y-99591584D01*
X131412319Y-99563083D01*
X131368717Y-99519481D01*
X131368709Y-99519475D01*
X131231790Y-99440426D01*
X131231786Y-99440424D01*
X131231784Y-99440423D01*
X131079057Y-99399500D01*
X130920943Y-99399500D01*
X130768216Y-99440423D01*
X130768209Y-99440426D01*
X130631290Y-99519475D01*
X130631282Y-99519481D01*
X130587681Y-99563083D01*
X130526358Y-99596568D01*
X130456666Y-99591584D01*
X130412319Y-99563083D01*
X130368717Y-99519481D01*
X130368709Y-99519475D01*
X130231790Y-99440426D01*
X130231786Y-99440424D01*
X130231784Y-99440423D01*
X130079057Y-99399500D01*
X129920943Y-99399500D01*
X129768216Y-99440423D01*
X129768209Y-99440426D01*
X129631290Y-99519475D01*
X129631282Y-99519481D01*
X129587681Y-99563083D01*
X129526358Y-99596568D01*
X129456666Y-99591584D01*
X129412319Y-99563083D01*
X129368717Y-99519481D01*
X129368709Y-99519475D01*
X129231790Y-99440426D01*
X129231786Y-99440424D01*
X129231784Y-99440423D01*
X129079057Y-99399500D01*
X128920943Y-99399500D01*
X128768216Y-99440423D01*
X128768209Y-99440426D01*
X128631290Y-99519475D01*
X128631282Y-99519481D01*
X128587681Y-99563083D01*
X128526358Y-99596568D01*
X128456666Y-99591584D01*
X128412319Y-99563083D01*
X128368717Y-99519481D01*
X128368709Y-99519475D01*
X128231790Y-99440426D01*
X128231786Y-99440424D01*
X128231784Y-99440423D01*
X128079057Y-99399500D01*
X127920943Y-99399500D01*
X127768216Y-99440423D01*
X127768209Y-99440426D01*
X127631290Y-99519475D01*
X127631282Y-99519481D01*
X127587681Y-99563083D01*
X127526358Y-99596568D01*
X127456666Y-99591584D01*
X127412319Y-99563083D01*
X127368717Y-99519481D01*
X127368709Y-99519475D01*
X127231790Y-99440426D01*
X127231786Y-99440424D01*
X127231784Y-99440423D01*
X127079057Y-99399500D01*
X126920943Y-99399500D01*
X126768216Y-99440423D01*
X126768209Y-99440426D01*
X126631290Y-99519475D01*
X126631282Y-99519481D01*
X126587681Y-99563083D01*
X126526358Y-99596568D01*
X126456666Y-99591584D01*
X126412319Y-99563083D01*
X126368717Y-99519481D01*
X126368709Y-99519475D01*
X126231790Y-99440426D01*
X126231786Y-99440424D01*
X126231784Y-99440423D01*
X126079057Y-99399500D01*
X125920943Y-99399500D01*
X125768216Y-99440423D01*
X125768209Y-99440426D01*
X125631290Y-99519475D01*
X125631282Y-99519481D01*
X125587681Y-99563083D01*
X125526358Y-99596568D01*
X125456666Y-99591584D01*
X125412319Y-99563083D01*
X125368717Y-99519481D01*
X125368709Y-99519475D01*
X125231790Y-99440426D01*
X125231786Y-99440424D01*
X125231784Y-99440423D01*
X125079057Y-99399500D01*
X124920943Y-99399500D01*
X124768216Y-99440423D01*
X124768209Y-99440426D01*
X124631290Y-99519475D01*
X124631282Y-99519481D01*
X124587681Y-99563083D01*
X124526358Y-99596568D01*
X124456666Y-99591584D01*
X124412319Y-99563083D01*
X124368717Y-99519481D01*
X124368709Y-99519475D01*
X124231790Y-99440426D01*
X124231786Y-99440424D01*
X124231784Y-99440423D01*
X124079057Y-99399500D01*
X123920943Y-99399500D01*
X123768216Y-99440423D01*
X123768209Y-99440426D01*
X123631290Y-99519475D01*
X123631282Y-99519481D01*
X123587681Y-99563083D01*
X123526358Y-99596568D01*
X123456666Y-99591584D01*
X123412319Y-99563083D01*
X123368717Y-99519481D01*
X123368709Y-99519475D01*
X123231790Y-99440426D01*
X123231786Y-99440424D01*
X123231784Y-99440423D01*
X123079057Y-99399500D01*
X122920943Y-99399500D01*
X122768216Y-99440423D01*
X122768209Y-99440426D01*
X122631290Y-99519475D01*
X122631282Y-99519481D01*
X122587681Y-99563083D01*
X122526358Y-99596568D01*
X122456666Y-99591584D01*
X122412319Y-99563083D01*
X122368717Y-99519481D01*
X122368709Y-99519475D01*
X122231790Y-99440426D01*
X122231786Y-99440424D01*
X122231784Y-99440423D01*
X122079057Y-99399500D01*
X121920943Y-99399500D01*
X121768216Y-99440423D01*
X121768209Y-99440426D01*
X121631290Y-99519475D01*
X121631282Y-99519481D01*
X121587681Y-99563083D01*
X121526358Y-99596568D01*
X121456666Y-99591584D01*
X121412319Y-99563083D01*
X121368717Y-99519481D01*
X121368709Y-99519475D01*
X121231790Y-99440426D01*
X121231786Y-99440424D01*
X121231784Y-99440423D01*
X121079057Y-99399500D01*
X120920943Y-99399500D01*
X120768216Y-99440423D01*
X120768209Y-99440426D01*
X120631290Y-99519475D01*
X120631282Y-99519481D01*
X120587681Y-99563083D01*
X120526358Y-99596568D01*
X120456666Y-99591584D01*
X120412319Y-99563083D01*
X120368717Y-99519481D01*
X120368709Y-99519475D01*
X120231790Y-99440426D01*
X120231786Y-99440424D01*
X120231784Y-99440423D01*
X120079057Y-99399500D01*
X119920943Y-99399500D01*
X119768216Y-99440423D01*
X119768209Y-99440426D01*
X119631290Y-99519475D01*
X119631282Y-99519481D01*
X119587681Y-99563083D01*
X119526358Y-99596568D01*
X119456666Y-99591584D01*
X119412319Y-99563083D01*
X119368717Y-99519481D01*
X119368709Y-99519475D01*
X119231790Y-99440426D01*
X119231786Y-99440424D01*
X119231784Y-99440423D01*
X119079057Y-99399500D01*
X118920943Y-99399500D01*
X118768216Y-99440423D01*
X118768209Y-99440426D01*
X118631290Y-99519475D01*
X118631282Y-99519481D01*
X118587681Y-99563083D01*
X118526358Y-99596568D01*
X118456666Y-99591584D01*
X118412319Y-99563083D01*
X118368717Y-99519481D01*
X118368709Y-99519475D01*
X118231790Y-99440426D01*
X118231786Y-99440424D01*
X118231784Y-99440423D01*
X118079057Y-99399500D01*
X117920943Y-99399500D01*
X117768216Y-99440423D01*
X117768209Y-99440426D01*
X117631290Y-99519475D01*
X117631282Y-99519481D01*
X117587681Y-99563083D01*
X117526358Y-99596568D01*
X117456666Y-99591584D01*
X117412319Y-99563083D01*
X117368717Y-99519481D01*
X117368709Y-99519475D01*
X117231790Y-99440426D01*
X117231786Y-99440424D01*
X117231784Y-99440423D01*
X117079057Y-99399500D01*
X116920943Y-99399500D01*
X116768216Y-99440423D01*
X116768209Y-99440426D01*
X116631290Y-99519475D01*
X116631282Y-99519481D01*
X116587681Y-99563083D01*
X116526358Y-99596568D01*
X116456666Y-99591584D01*
X116412319Y-99563083D01*
X116368717Y-99519481D01*
X116368709Y-99519475D01*
X116231790Y-99440426D01*
X116231786Y-99440424D01*
X116231784Y-99440423D01*
X116079057Y-99399500D01*
X115920943Y-99399500D01*
X115768216Y-99440423D01*
X115768209Y-99440426D01*
X115631290Y-99519475D01*
X115631282Y-99519481D01*
X115587681Y-99563083D01*
X115526358Y-99596568D01*
X115456666Y-99591584D01*
X115412319Y-99563083D01*
X115368717Y-99519481D01*
X115368709Y-99519475D01*
X115231790Y-99440426D01*
X115231786Y-99440424D01*
X115231784Y-99440423D01*
X115079057Y-99399500D01*
X114920943Y-99399500D01*
X114768216Y-99440423D01*
X114768209Y-99440426D01*
X114631290Y-99519475D01*
X114631282Y-99519481D01*
X114587681Y-99563083D01*
X114526358Y-99596568D01*
X114456666Y-99591584D01*
X114412319Y-99563083D01*
X114368717Y-99519481D01*
X114368709Y-99519475D01*
X114231790Y-99440426D01*
X114231786Y-99440424D01*
X114231784Y-99440423D01*
X114079057Y-99399500D01*
X113920943Y-99399500D01*
X113768216Y-99440423D01*
X113768209Y-99440426D01*
X113631290Y-99519475D01*
X113631282Y-99519481D01*
X113587681Y-99563083D01*
X113526358Y-99596568D01*
X113456666Y-99591584D01*
X113412319Y-99563083D01*
X113368717Y-99519481D01*
X113368709Y-99519475D01*
X113231790Y-99440426D01*
X113231786Y-99440424D01*
X113231784Y-99440423D01*
X113079057Y-99399500D01*
X112920943Y-99399500D01*
X112768216Y-99440423D01*
X112768213Y-99440424D01*
X112744844Y-99453916D01*
X112676944Y-99470386D01*
X112610917Y-99447533D01*
X112605385Y-99443355D01*
X51077226Y-50220828D01*
X51037174Y-50163577D01*
X51034431Y-50093762D01*
X51069870Y-50033546D01*
X51132237Y-50002049D01*
X51154688Y-50000000D01*
X299876000Y-50000000D01*
X299943039Y-50019685D01*
G37*
%TD.AperFunction*%
D11*
X169000000Y-130000000D03*
X169000000Y-128000000D03*
X169000000Y-126000000D03*
X169000000Y-124000000D03*
X169000000Y-122000000D03*
X169000000Y-120000000D03*
X169000000Y-118000000D03*
X167000000Y-130000000D03*
X167000000Y-128000000D03*
X167000000Y-126000000D03*
X167000000Y-124000000D03*
X167000000Y-122000000D03*
X167000000Y-120000000D03*
X167000000Y-118000000D03*
X165000000Y-130000000D03*
X165000000Y-128000000D03*
X165000000Y-126000000D03*
X165000000Y-124000000D03*
X165000000Y-122000000D03*
X165000000Y-120000000D03*
X165000000Y-118000000D03*
X163000000Y-130000000D03*
X163000000Y-128000000D03*
X163000000Y-126000000D03*
X163000000Y-124000000D03*
X163000000Y-122000000D03*
X163000000Y-120000000D03*
X163000000Y-118000000D03*
X161000000Y-130000000D03*
X161000000Y-128000000D03*
X161000000Y-126000000D03*
X161000000Y-124000000D03*
X161000000Y-122000000D03*
X161000000Y-120000000D03*
X161000000Y-118000000D03*
X159000000Y-130000000D03*
X159000000Y-128000000D03*
X159000000Y-126000000D03*
X159000000Y-124000000D03*
X159000000Y-122000000D03*
X159000000Y-120000000D03*
X159000000Y-118000000D03*
X157000000Y-130000000D03*
X157000000Y-128000000D03*
X157000000Y-126000000D03*
X157000000Y-124000000D03*
X157000000Y-122000000D03*
X157000000Y-120000000D03*
X157000000Y-118000000D03*
X155000000Y-130000000D03*
X155000000Y-128000000D03*
X155000000Y-126000000D03*
X155000000Y-124000000D03*
X155000000Y-122000000D03*
X155000000Y-120000000D03*
X155000000Y-118000000D03*
M02*
